<?xml version="1.0" encoding="UTF-8"?>
<svg id="Layer_2" data-name="Layer 2" xmlns="http://www.w3.org/2000/svg" viewBox="0 0 319.33 56.53">
  <defs>
    <style>
      .cls-1 {
        fill: #a7a9ac;
        stroke-width: 0px;
      }
    </style>
  </defs>
  <g id="Layer_1-2" data-name="Layer 1">
    <path class="cls-1" d="M38.78,26.97L24.92,2.96c-2.28-3.95-7.98-3.95-10.26,0L.8,26.97c-2.28,3.95.57,8.88,5.13,8.88h27.72c4.56,0,7.41-4.94,5.13-8.88ZM31.8,32.18H7.78c-2.26,0-3.67-2.45-2.54-4.41L17.25,6.98c1.13-1.96,3.96-1.96,5.09,0l12.01,20.8c1.13,1.96-.28,4.41-2.54,4.41Z"/>
    <path class="cls-1" d="M59.85,29.56l-13.86,24.01c-2.28,3.95-7.98,3.95-10.26,0l-13.86-24.01c-2.28-3.95.57-8.88,5.13-8.88h27.72c4.56,0,7.41,4.94,5.13,8.88ZM52.87,24.34h-24.02c-2.26,0-3.67,2.45-2.54,4.41l.23.39,2.12,3.67,9.66,16.74c1.13,1.96,3.96,1.96,5.09,0l12.01-20.8c1.13-1.96-.28-4.41-2.54-4.41Z"/>
    <g>
      <path class="cls-1" d="M79.72,43.14V14.63h-10.39v-6.32h27.83v6.32h-10.34v28.51h-7.1Z"/>
      <path class="cls-1" d="M96.64,43.14v-25.17h6.21l.31,2.19c.94-1.01,1.89-1.71,2.85-2.11.96-.4,1.96-.6,3-.6.59,0,1.22.07,1.88.21.66.14,1.34.33,2.04.57l-1.2,5.9c-.7-.28-1.35-.5-1.96-.65-.61-.16-1.21-.23-1.8-.23-.97,0-1.85.23-2.64.68s-1.4.97-1.85,1.57v17.65h-6.84Z"/>
      <path class="cls-1" d="M129.43,43.14l-.31-1.88c-.73.76-1.66,1.37-2.79,1.8-1.13.43-2.37.65-3.73.65-1.11,0-2.2-.18-3.26-.55-1.06-.37-1.99-.89-2.79-1.57-.8-.68-1.44-1.51-1.93-2.51s-.73-2.11-.73-3.37.26-2.36.78-3.31c.52-.96,1.22-1.77,2.09-2.43.87-.66,1.87-1.2,3-1.62,1.13-.42,2.32-.73,3.58-.94.87-.17,1.83-.3,2.87-.39,1.04-.09,1.91-.17,2.61-.24v-.84c0-1.01-.35-1.83-1.04-2.45s-1.51-.94-2.45-.94c-.59,0-1.34.16-2.25.47s-1.77.91-2.61,1.78l-4.65-3.24c.66-.84,1.42-1.53,2.27-2.09.85-.56,1.72-.99,2.61-1.31.89-.31,1.77-.53,2.64-.65.87-.12,1.67-.18,2.4-.18,1.46,0,2.8.18,4.02.55,1.22.36,2.27.94,3.16,1.72.89.78,1.57,1.78,2.06,2.98.49,1.2.73,2.65.73,4.36v16.19h-6.27ZM128.86,31.39c-.7.03-1.44.1-2.22.18-.78.09-1.52.2-2.22.34-1.46.28-2.48.76-3.05,1.44-.58.68-.86,1.42-.86,2.22s.31,1.51.94,2.01,1.55.76,2.77.76c.87,0,1.71-.17,2.53-.52.82-.35,1.52-.78,2.12-1.31v-5.12Z"/>
      <path class="cls-1" d="M142.33,43.14v-25.17h6.21l.31,1.98c1.04-.84,2.25-1.48,3.6-1.93,1.36-.45,2.71-.68,4.07-.68s2.67.2,3.84.6c1.17.4,2.17,1.04,3,1.91.84.87,1.49,2,1.96,3.39.47,1.39.71,3.06.71,5.01v14.88h-6.84v-14.36c0-1.91-.42-3.39-1.25-4.44-.84-1.04-2-1.57-3.5-1.57-1.04,0-2.02.26-2.92.78s-1.69,1.1-2.35,1.72v17.86h-6.84Z"/>
      <path class="cls-1" d="M175.85,34.68c.59,1.11,1.42,2.05,2.48,2.79,1.06.75,2.39,1.12,3.99,1.12,1.39,0,2.48-.22,3.26-.65s1.17-1.04,1.17-1.8-.42-1.37-1.25-1.93c-.83-.56-2.38-1.04-4.65-1.46-1.32-.24-2.53-.57-3.63-.97-1.1-.4-2.03-.91-2.79-1.54-.77-.63-1.36-1.37-1.77-2.25-.42-.87-.63-1.91-.63-3.13,0-2.23.93-4.04,2.79-5.43,1.86-1.39,4.38-2.09,7.55-2.09,2.85,0,5.12.46,6.79,1.38s2.96,2.04,3.86,3.37l-4.8,3.29c-.63-.84-1.43-1.53-2.4-2.09-.97-.56-2.12-.84-3.45-.84-1.46,0-2.47.22-3.03.65-.56.44-.83,1-.83,1.7,0,.8.35,1.38,1.04,1.72.7.35,1.98.71,3.87,1.1,1.53.31,2.9.68,4.1,1.1,1.2.42,2.22.95,3.06,1.59.83.64,1.47,1.42,1.91,2.32.43.91.65,1.97.65,3.18,0,1.36-.28,2.53-.84,3.52s-1.32,1.81-2.3,2.45c-.97.64-2.12,1.12-3.45,1.44s-2.73.47-4.23.47c-2.99,0-5.42-.57-7.28-1.7-1.86-1.13-3.28-2.55-4.26-4.26l5.07-3.08Z"/>
      <path class="cls-1" d="M205.71,43.14l-11.12-25.17h7.26l6.94,16.71,6.68-16.71h6.94l-10.81,25.17h-5.9Z"/>
      <path class="cls-1" d="M230.57,32.17c.17,2.12.83,3.66,1.96,4.6,1.13.94,2.39,1.41,3.79,1.41,1.22,0,2.31-.22,3.29-.65.97-.44,1.98-1.38,3.03-2.85l5.07,3.08c-1.43,2.19-3.08,3.73-4.96,4.62s-4.09,1.33-6.63,1.33c-1.67,0-3.25-.26-4.75-.78-1.5-.52-2.81-1.33-3.94-2.43-1.13-1.1-2.03-2.46-2.69-4.1-.66-1.63-.99-3.58-.99-5.85,0-2.12.32-4,.97-5.64s1.52-3.01,2.64-4.13c1.11-1.11,2.41-1.97,3.89-2.56,1.48-.59,3.06-.89,4.73-.89,3.52,0,6.34,1.23,8.48,3.68,2.14,2.45,3.25,6.17,3.32,11.15h-17.18ZM240.8,27.53c-.14-1.67-.71-2.92-1.7-3.76s-2.05-1.25-3.16-1.25c-.59,0-1.17.11-1.75.34-.57.23-1.1.56-1.59.99-.49.44-.9.97-1.23,1.59-.33.63-.55,1.32-.65,2.09h10.08Z"/>
      <path class="cls-1" d="M252.71,43.14v-25.17h6.21l.31,2.19c.94-1.01,1.89-1.71,2.85-2.11.96-.4,1.96-.6,3-.6.59,0,1.22.07,1.88.21.66.14,1.34.33,2.04.57l-1.2,5.9c-.7-.28-1.35-.5-1.96-.65-.61-.16-1.21-.23-1.8-.23-.97,0-1.85.23-2.64.68s-1.4.97-1.85,1.57v17.65h-6.84Z"/>
      <path class="cls-1" d="M274.74,34.68c.59,1.11,1.42,2.05,2.48,2.79,1.06.75,2.39,1.12,3.99,1.12,1.39,0,2.48-.22,3.26-.65s1.17-1.04,1.17-1.8-.42-1.37-1.25-1.93c-.83-.56-2.38-1.04-4.65-1.46-1.32-.24-2.53-.57-3.63-.97-1.1-.4-2.03-.91-2.79-1.54-.77-.63-1.36-1.37-1.77-2.25-.42-.87-.63-1.91-.63-3.13,0-2.23.93-4.04,2.79-5.43,1.86-1.39,4.38-2.09,7.55-2.09,2.85,0,5.12.46,6.79,1.38s2.96,2.04,3.86,3.37l-4.8,3.29c-.63-.84-1.43-1.53-2.4-2.09-.97-.56-2.12-.84-3.45-.84-1.46,0-2.47.22-3.03.65-.56.44-.83,1-.83,1.7,0,.8.35,1.38,1.04,1.72.7.35,1.98.71,3.87,1.1,1.53.31,2.9.68,4.1,1.1,1.2.42,2.22.95,3.06,1.59.83.64,1.47,1.42,1.91,2.32.43.91.65,1.97.65,3.18,0,1.36-.28,2.53-.84,3.52s-1.32,1.81-2.3,2.45-2.12,1.12-3.45,1.44-2.73.47-4.23.47c-2.99,0-5.42-.57-7.28-1.7-1.86-1.13-3.28-2.55-4.26-4.26l5.07-3.08Z"/>
      <path class="cls-1" d="M302.15,32.17c.17,2.12.83,3.66,1.96,4.6,1.13.94,2.39,1.41,3.79,1.41,1.22,0,2.31-.22,3.29-.65.97-.44,1.98-1.38,3.03-2.85l5.07,3.08c-1.43,2.19-3.08,3.73-4.96,4.62s-4.09,1.33-6.63,1.33c-1.67,0-3.25-.26-4.75-.78-1.5-.52-2.81-1.33-3.94-2.43-1.13-1.1-2.03-2.46-2.69-4.1-.66-1.63-.99-3.58-.99-5.85,0-2.12.32-4,.97-5.64.64-1.64,1.52-3.01,2.64-4.13,1.11-1.11,2.41-1.97,3.89-2.56,1.48-.59,3.06-.89,4.73-.89,3.52,0,6.34,1.23,8.48,3.68,2.14,2.45,3.25,6.17,3.32,11.15h-17.18ZM312.39,27.53c-.14-1.67-.71-2.92-1.7-3.76s-2.05-1.25-3.16-1.25c-.59,0-1.17.11-1.75.34-.57.23-1.1.56-1.59.99-.49.44-.9.97-1.23,1.59-.33.63-.55,1.32-.65,2.09h10.08Z"/>
    </g>
  </g>
</svg>