<?xml version="1.0" encoding="UTF-8"?>
<svg id="Layer_2" data-name="Layer 2" xmlns="http://www.w3.org/2000/svg" viewBox="0 0 60.65 56.53">
  <defs>
    <style>
      .cls-1 {
        fill: #a7a9ac;
        stroke-width: 0px;
      }
    </style>
  </defs>
  <g id="Layer_1-2" data-name="Layer 1">
    <path class="cls-1" d="M38.78,26.97L24.92,2.96c-2.28-3.95-7.98-3.95-10.26,0L.8,26.97c-2.28,3.95.57,8.88,5.13,8.88h27.72c4.56,0,7.41-4.94,5.13-8.88ZM31.8,32.18H7.78c-2.26,0-3.67-2.45-2.54-4.41L17.25,6.98c1.13-1.96,3.96-1.96,5.09,0l12.01,20.8c1.13,1.96-.28,4.41-2.54,4.41Z"/>
    <path class="cls-1" d="M59.85,29.56l-13.86,24.01c-2.28,3.95-7.98,3.95-10.26,0l-13.86-24.01c-2.28-3.95.57-8.88,5.13-8.88h27.72c4.56,0,7.41,4.94,5.13,8.88ZM52.87,24.34h-24.02c-2.26,0-3.67,2.45-2.54,4.41l.23.39,2.12,3.67,9.66,16.74c1.13,1.96,3.96,1.96,5.09,0l12.01-20.8c1.13-1.96-.28-4.41-2.54-4.41Z"/>
  </g>
</svg>