<?xml version="1.0" encoding="UTF-8"?>
<svg id="Layer_1" data-name="Layer 1" xmlns="http://www.w3.org/2000/svg" xmlns:xlink="http://www.w3.org/1999/xlink" viewBox="0 0 300 150">
  <defs>
    <style>
      .cls-1 {
        fill: url(#linear-gradient);
      }

      .cls-1, .cls-2, .cls-3, .cls-4 {
        stroke-width: 0px;
      }

      .cls-2 {
        fill: url(#linear-gradient-2);
      }

      .cls-3 {
        fill: url(#linear-gradient-3);
      }

      .cls-4 {
        fill: #2f3e7c;
      }
    </style>
    <linearGradient id="linear-gradient" x1="26.2" y1="65.17" x2="65.79" y2="65.17" gradientUnits="userSpaceOnUse">
      <stop offset="0" stop-color="#09a6df"/>
      <stop offset=".08" stop-color="#2e97d3"/>
      <stop offset=".21" stop-color="#5f83c5"/>
      <stop offset=".33" stop-color="#8972b8"/>
      <stop offset=".46" stop-color="#ac65ae"/>
      <stop offset=".59" stop-color="#c65aa6"/>
      <stop offset=".72" stop-color="#d952a0"/>
      <stop offset=".86" stop-color="#e54e9d"/>
      <stop offset="1" stop-color="#e94d9c"/>
    </linearGradient>
    <linearGradient id="linear-gradient-2" x1="47.05" y1="-156.9" x2="86.63" y2="-156.9" gradientTransform="translate(0 -71.05) scale(1 -1)" gradientUnits="userSpaceOnUse">
      <stop offset="0" stop-color="#5a6fb5"/>
      <stop offset="1" stop-color="#b77eb7"/>
    </linearGradient>
    <linearGradient id="linear-gradient-3" x1="26.2" y1="65.17" x2="65.78" y2="65.17" gradientUnits="userSpaceOnUse">
      <stop offset="0" stop-color="#09a6df"/>
      <stop offset=".13" stop-color="#1d97d4"/>
      <stop offset=".34" stop-color="#3785c6"/>
      <stop offset=".55" stop-color="#4a78bc"/>
      <stop offset=".77" stop-color="#5670b5"/>
      <stop offset="1" stop-color="#5a6eb4"/>
    </linearGradient>
  </defs>
  <g>
    <path class="cls-4" d="m103.32,86.32v-21h-7.65v-4.65h20.5v4.65h-7.61v21h-5.23Z"/>
    <path class="cls-4" d="m115.78,86.32v-18.54h4.58l.23,1.62c.69-.74,1.39-1.26,2.1-1.56.7-.29,1.44-.44,2.21-.44.44,0,.9.05,1.38.15.49.1.99.24,1.5.42l-.89,4.34c-.51-.2-.99-.36-1.44-.48-.45-.12-.89-.17-1.33-.17-.72,0-1.36.17-1.94.5s-1.03.72-1.36,1.15v13h-5.04Z"/>
    <path class="cls-4" d="m139.93,86.32l-.23-1.38c-.54.56-1.22,1.01-2.06,1.33-.83.32-1.75.48-2.75.48-.82,0-1.62-.13-2.4-.4-.78-.27-1.47-.65-2.06-1.15-.59-.5-1.06-1.11-1.42-1.85s-.54-1.56-.54-2.48.19-1.74.58-2.44c.39-.7.9-1.3,1.54-1.79.64-.49,1.38-.88,2.21-1.19.83-.31,1.71-.54,2.63-.69.64-.13,1.35-.22,2.11-.29.77-.06,1.41-.12,1.92-.17v-.62c0-.74-.26-1.35-.77-1.81s-1.11-.69-1.81-.69c-.44,0-.99.12-1.65.35s-1.31.67-1.92,1.31l-3.42-2.38c.49-.62,1.04-1.13,1.67-1.54.63-.41,1.27-.73,1.92-.96.65-.23,1.3-.39,1.94-.48.64-.09,1.23-.13,1.77-.13,1.08,0,2.06.13,2.96.4.9.27,1.67.69,2.33,1.27.65.58,1.16,1.31,1.52,2.19.36.88.54,1.95.54,3.21v11.92h-4.61Zm-.42-8.65c-.51.03-1.06.07-1.64.13-.58.06-1.12.15-1.63.25-1.08.21-1.83.56-2.25,1.06-.42.5-.64,1.05-.64,1.63s.23,1.11.69,1.48,1.14.56,2.04.56c.64,0,1.26-.13,1.86-.38.6-.26,1.12-.58,1.56-.96v-3.77Z"/>
    <path class="cls-4" d="m149.43,86.32v-18.54h4.58l.23,1.46c.77-.62,1.65-1.09,2.65-1.42,1-.33,2-.5,3-.5s1.97.15,2.83.44c.86.3,1.6.76,2.21,1.4.62.64,1.1,1.47,1.44,2.5.35,1.03.52,2.26.52,3.69v10.96h-5.04v-10.58c0-1.41-.31-2.5-.92-3.27-.62-.77-1.47-1.15-2.58-1.15-.77,0-1.49.19-2.15.58s-1.24.81-1.73,1.27v13.15h-5.04Z"/>
    <path class="cls-4" d="m174.12,80.09c.44.82,1.04,1.51,1.83,2.06.78.55,1.76.83,2.94.83,1.02,0,1.83-.16,2.4-.48s.86-.76.86-1.33-.31-1.01-.92-1.42c-.61-.41-1.76-.77-3.42-1.08-.97-.18-1.86-.42-2.67-.71-.81-.3-1.49-.67-2.06-1.14-.56-.46-1-1.01-1.31-1.65-.31-.64-.46-1.41-.46-2.31,0-1.64.68-2.97,2.06-4,1.37-1.02,3.22-1.54,5.56-1.54,2.1,0,3.77.34,5,1.02s2.18,1.51,2.85,2.48l-3.54,2.42c-.46-.62-1.05-1.13-1.77-1.54-.72-.41-1.56-.62-2.54-.62-1.08,0-1.82.16-2.23.48-.41.32-.61.74-.61,1.25,0,.59.26,1.01.77,1.27.51.26,1.46.53,2.85.81,1.13.23,2.13.5,3.02.81.88.31,1.63.7,2.25,1.17.61.47,1.08,1.05,1.4,1.71.32.67.48,1.45.48,2.35,0,1-.21,1.86-.62,2.6s-.97,1.33-1.69,1.81-1.56.83-2.54,1.06-2.01.35-3.11.35c-2.2,0-3.99-.42-5.36-1.25s-2.42-1.88-3.13-3.13l3.73-2.27Z"/>
    <path class="cls-4" d="m196.11,86.32l-8.19-18.54h5.35l5.11,12.31,4.92-12.31h5.11l-7.96,18.54h-4.35Z"/>
    <path class="cls-4" d="m214.42,78.24c.13,1.56.61,2.69,1.44,3.38.83.69,1.76,1.04,2.79,1.04.9,0,1.7-.16,2.42-.48.72-.32,1.46-1.02,2.23-2.1l3.73,2.27c-1.05,1.62-2.27,2.75-3.65,3.4s-3.01.98-4.88.98c-1.23,0-2.4-.19-3.5-.58-1.1-.38-2.07-.98-2.9-1.79-.83-.81-1.49-1.81-1.98-3.02-.49-1.2-.73-2.64-.73-4.31,0-1.56.24-2.95.71-4.15s1.12-2.22,1.94-3.04c.82-.82,1.78-1.45,2.86-1.88,1.09-.44,2.25-.65,3.48-.65,2.59,0,4.67.9,6.25,2.71,1.58,1.81,2.39,4.54,2.44,8.21h-12.65Zm7.54-3.42c-.1-1.23-.52-2.15-1.25-2.77s-1.51-.92-2.33-.92c-.44,0-.86.08-1.29.25-.42.17-.81.41-1.17.73-.36.32-.66.71-.9,1.17-.24.46-.4.97-.48,1.54h7.42Z"/>
    <path class="cls-4" d="m230.72,86.32v-18.54h4.58l.23,1.62c.69-.74,1.39-1.26,2.1-1.56.7-.29,1.44-.44,2.21-.44.44,0,.9.05,1.38.15.49.1.99.24,1.5.42l-.89,4.34c-.51-.2-.99-.36-1.44-.48-.45-.12-.89-.17-1.33-.17-.72,0-1.36.17-1.94.5s-1.03.72-1.36,1.15v13h-5.04Z"/>
    <path class="cls-4" d="m246.95,80.09c.44.82,1.04,1.51,1.83,2.06.78.55,1.76.83,2.94.83,1.02,0,1.83-.16,2.4-.48s.86-.76.86-1.33-.31-1.01-.92-1.42c-.61-.41-1.76-.77-3.42-1.08-.97-.18-1.86-.42-2.67-.71-.81-.3-1.49-.67-2.06-1.14-.56-.46-1-1.01-1.31-1.65-.31-.64-.46-1.41-.46-2.31,0-1.64.68-2.97,2.06-4,1.37-1.02,3.22-1.54,5.56-1.54,2.1,0,3.77.34,5,1.02s2.18,1.51,2.85,2.48l-3.54,2.42c-.46-.62-1.05-1.13-1.77-1.54-.72-.41-1.56-.62-2.54-.62-1.08,0-1.82.16-2.23.48-.41.32-.61.74-.61,1.25,0,.59.26,1.01.77,1.27.51.26,1.46.53,2.85.81,1.13.23,2.13.5,3.02.81.88.31,1.63.7,2.25,1.17.61.47,1.08,1.05,1.4,1.71.32.67.48,1.45.48,2.35,0,1-.21,1.86-.62,2.6s-.97,1.33-1.69,1.81-1.56.83-2.54,1.06-2.01.35-3.11.35c-2.2,0-3.99-.42-5.36-1.25s-2.42-1.88-3.13-3.13l3.73-2.27Z"/>
    <path class="cls-4" d="m267.14,78.24c.13,1.56.61,2.69,1.44,3.38.83.69,1.76,1.04,2.79,1.04.9,0,1.7-.16,2.42-.48.72-.32,1.46-1.02,2.23-2.1l3.73,2.27c-1.05,1.62-2.27,2.75-3.65,3.4s-3.01.98-4.88.98c-1.23,0-2.4-.19-3.5-.58-1.1-.38-2.07-.98-2.9-1.79-.83-.81-1.49-1.81-1.98-3.02-.49-1.2-.73-2.64-.73-4.31,0-1.56.24-2.95.71-4.15s1.12-2.22,1.94-3.04c.82-.82,1.78-1.45,2.86-1.88,1.09-.44,2.25-.65,3.48-.65,2.59,0,4.67.9,6.25,2.71,1.58,1.81,2.39,4.54,2.44,8.21h-12.65Zm7.54-3.42c-.1-1.23-.52-2.15-1.25-2.77s-1.51-.92-2.33-.92c-.44,0-.86.08-1.29.25-.42.17-.81.41-1.17.73-.36.32-.66.71-.9,1.17-.24.46-.4.97-.48,1.54h7.42Z"/>
  </g>
  <path class="cls-1" d="m64.98,74.22l-13.86-24.01c-2.28-3.95-7.98-3.95-10.26,0l-13.86,24.01c-2.28,3.95.57,8.88,5.13,8.88h27.72c4.56,0,7.41-4.94,5.13-8.88Zm-6.98,5.21h-24.02c-2.26,0-3.67-2.45-2.54-4.41l12.01-20.8c1.13-1.96,3.96-1.96,5.09,0l12.01,20.8c1.13,1.96-.28,4.41-2.54,4.41Z"/>
  <path class="cls-2" d="m85.83,76.8l-13.86,24.01c-2.28,3.95-7.98,3.95-10.26,0l-13.86-24.01c-2.28-3.95.57-8.88,5.13-8.88h27.72c4.56,0,7.41,4.94,5.13,8.88Zm-6.98-5.21h-24.02c-2.26,0-3.67,2.45-2.54,4.41l.23.39,2.12,3.67,9.66,16.74c1.13,1.96,3.96,1.96,5.09,0l12.01-20.8c1.13-1.96-.28-4.41-2.54-4.41Z"/>
  <path class="cls-3" d="m64.98,74.22l-13.86-24.01c-2.28-3.95-7.98-3.95-10.26,0l-13.86,24.01c-2.28,3.95.57,8.88,5.13,8.88h19.35l-2.12-3.67h-15.39c-2.26,0-3.67-2.45-2.54-4.41l12.01-20.8c1.13-1.96,3.96-1.96,5.09,0l12.01,20.8c1.13,1.96-.28,4.41-2.54,4.41h-3.73l2.12,3.67h3.47c4.56,0,7.41-4.94,5.13-8.88Z"/>
</svg>