<?xml version="1.0" encoding="UTF-8"?>
<svg id="Layer_1" data-name="Layer 1" xmlns="http://www.w3.org/2000/svg" xmlns:xlink="http://www.w3.org/1999/xlink" viewBox="0 0 242.4 47">
  <defs>
    <style>
      .cls-1 {
        fill: url(#linear-gradient);
      }

      .cls-1, .cls-2, .cls-3 {
        stroke-width: 0px;
      }

      .cls-2 {
        fill: url(#linear-gradient-2);
      }

      .cls-3 {
        fill: #2f3e7c;
      }
    </style>
    <linearGradient id="linear-gradient" x1="17.86" y1="-794.9" x2="46.61" y2="-794.9" gradientTransform="translate(0 -763.05) scale(1 -1)" gradientUnits="userSpaceOnUse">
      <stop offset="0" stop-color="#5a6fb5"/>
      <stop offset="1" stop-color="#b77eb7"/>
    </linearGradient>
    <linearGradient id="linear-gradient-2" x1="2.55" y1="711.29" x2="31.3" y2="711.29" gradientTransform="translate(0 -694.39)" gradientUnits="userSpaceOnUse">
      <stop offset="0" stop-color="#09a6df"/>
      <stop offset=".06" stop-color="#239fda"/>
      <stop offset=".24" stop-color="#418dcc"/>
      <stop offset=".42" stop-color="#4f7fc1"/>
      <stop offset=".6" stop-color="#5676ba"/>
      <stop offset=".8" stop-color="#5970b6"/>
      <stop offset="1" stop-color="#5a6eb4"/>
    </linearGradient>
  </defs>
  <path class="cls-1" d="M46.04,25.3l-10.1,17.5c-1.7,2.8-5.8,2.8-7.5,0l-10.1-17.5c-1.7-2.8.4-6.5,3.7-6.5h20.1c3.5.1,5.5,3.7,3.9,6.5ZM40.94,21.6h-17.4c-1.7,0-2.7,1.7-1.8,3.2l.1.3,1.5,2.7,7,12.1c.8,1.5,2.9,1.5,3.7,0l8.7-15.1c.9-1.5-.1-3.2-1.8-3.2Z"/>
  <path class="cls-2" d="M30.75,23.5L20.65,6c-1.7-2.8-5.8-2.8-7.5,0L3.15,23.4c-1.7,2.8.4,6.5,3.7,6.5h14.15l-1.55-2.7h-11.3c-1.7,0-2.7-1.7-1.8-3.2l8.7-15.1c.8-1.5,2.9-1.5,3.7,0l8.8,15.1c.8,1.5-.2,3.2-1.8,3.2h-2.75l1.55,2.7h2.5c3.2,0,5.3-3.5,3.7-6.4Z"/>
  <g>
    <path class="cls-3" d="M60.7,37v-21h-7.7v-4.7h20.5v4.7h-7.6v21s-5.2,0-5.2,0Z"/>
    <path class="cls-3" d="M73.2,37v-18.5h4.6l.2,1.6c.7-.7,1.4-1.3,2.1-1.6.7-.3,1.4-.4,2.2-.4.4,0,.9.1,1.4.2s1,.2,1.5.4l-.9,4.3c-.5-.2-1-.4-1.4-.5s-.9-.2-1.3-.2c-.7,0-1.4.2-1.9.5-.6.3-1,.7-1.4,1.2v13s-5.1,0-5.1,0Z"/>
    <path class="cls-3" d="M97.3,37l-.2-1.4c-.5.6-1.2,1-2.1,1.3-.8.3-1.7.5-2.7.5-.8,0-1.6-.1-2.4-.4s-1.5-.7-2.1-1.2-1.1-1.1-1.4-1.8c-.4-.7-.5-1.6-.5-2.5s.2-1.7.6-2.4.9-1.3,1.5-1.8,1.4-.9,2.2-1.2c.8-.3,1.7-.5,2.6-.7.6-.1,1.3-.2,2.1-.3.8-.1,1.4-.1,1.9-.2v-.6c0-.7-.3-1.3-.8-1.8s-1.1-.7-1.8-.7c-.4,0-1,.1-1.7.3-.7.2-1.3.7-1.9,1.3l-3.4-2.4c.5-.6,1-1.1,1.7-1.5.6-.4,1.3-.7,1.9-1,.7-.2,1.3-.4,1.9-.5s1.2-.1,1.8-.1c1.1,0,2.1.1,3,.4s1.7.7,2.3,1.3c.7.6,1.2,1.3,1.5,2.2.4.9.5,2,.5,3.2v11.9l-4.5.1h0ZM96.9,28.4c-.5,0-1.1.1-1.6.1-.6.1-1.1.1-1.6.2-1.1.2-1.8.6-2.2,1.1s-.6,1-.6,1.6.2,1.1.7,1.5,1.1.6,2,.6c.6,0,1.3-.1,1.9-.4s1.1-.6,1.6-1v-3.7s-.2,0-.2,0Z"/>
    <path class="cls-3" d="M106.8,37v-18.5h4.6l.2,1.5c.8-.6,1.7-1.1,2.7-1.4s2-.5,3-.5,2,.1,2.8.4c.9.3,1.6.8,2.2,1.4s1.1,1.5,1.4,2.5.5,2.3.5,3.7v11h-5v-10.7c0-1.4-.3-2.5-.9-3.3s-1.5-1.2-2.6-1.2c-.8,0-1.5.2-2.2.6s-1.2.8-1.7,1.3v13.2s-5,0-5,0Z"/>
    <path class="cls-3" d="M131.5,30.8c.4.8,1,1.5,1.8,2.1s1.8.8,2.9.8c1,0,1.8-.2,2.4-.5s.9-.8.9-1.3-.3-1-.9-1.4-1.8-.8-3.4-1.1c-1-.2-1.9-.4-2.7-.7-.8-.3-1.5-.7-2.1-1.1-.6-.5-1-1-1.3-1.7-.3-.6-.5-1.4-.5-2.3,0-1.6.7-3,2.1-4s3.2-1.5,5.6-1.5c2.1,0,3.8.3,5,1s2.2,1.5,2.8,2.5l-3.5,2.4c-.5-.6-1.1-1.1-1.8-1.5-.7-.4-1.6-.6-2.5-.6-1.1,0-1.8.2-2.2.5-.4.3-.6.7-.6,1.2,0,.6.3,1,.8,1.3s1.5.5,2.8.8c1.1.2,2.1.5,3,.8s1.6.7,2.2,1.2,1.1,1,1.4,1.7.5,1.4.5,2.3c0,1-.2,1.9-.6,2.6s-1,1.3-1.7,1.8-1.6.8-2.5,1.1c-1,.2-2,.3-3.1.3-2.2,0-4-.4-5.4-1.2s-2.4-1.9-3.1-3.1l3.7-2.4Z"/>
    <path class="cls-3" d="M153.5,37l-8.2-18.5h5.3l5.1,12.3,4.9-12.3h5.1l-8,18.5s-4.2,0-4.2,0Z"/>
    <path class="cls-3" d="M171.8,28.9c.1,1.6.6,2.7,1.4,3.4s1.8,1,2.8,1c.9,0,1.7-.2,2.4-.5.7-.3,1.5-1,2.2-2.1l3.7,2.3c-1.1,1.6-2.3,2.7-3.7,3.4-1.4.7-3,1-4.9,1-1.2,0-2.4-.2-3.5-.6s-2.1-1-2.9-1.8-1.5-1.8-2-3-.7-2.6-.7-4.3c0-1.6.2-2.9.7-4.2.5-1.2,1.1-2.2,1.9-3s1.8-1.4,2.9-1.9c1.1-.4,2.2-.7,3.5-.7,2.6,0,4.7.9,6.2,2.7,1.6,1.8,2.4,4.5,2.4,8.2l-12.4.1h0ZM179.4,25.5c-.1-1.2-.5-2.2-1.2-2.8-.7-.6-1.5-.9-2.3-.9-.4,0-.9.1-1.3.2-.4.2-.8.4-1.2.7-.4.3-.7.7-.9,1.2-.2.5-.4,1-.5,1.5l7.4.1h0Z"/>
    <path class="cls-3" d="M188.1,37v-18.5h4.6l.2,1.6c.7-.7,1.4-1.3,2.1-1.6.7-.3,1.4-.4,2.2-.4.4,0,.9.1,1.4.2s1,.2,1.5.4l-.9,4.3c-.5-.2-1-.4-1.4-.5s-.9-.2-1.3-.2c-.7,0-1.4.2-1.9.5s-1,.7-1.4,1.2v13s-5.1,0-5.1,0Z"/>
    <path class="cls-3" d="M204.3,30.8c.4.8,1,1.5,1.8,2.1s1.8.8,2.9.8c1,0,1.8-.2,2.4-.5s.9-.8.9-1.3-.3-1-.9-1.4-1.8-.8-3.4-1.1c-1-.2-1.9-.4-2.7-.7s-1.5-.7-2.1-1.1c-.6-.5-1-1-1.3-1.7-.3-.6-.5-1.4-.5-2.3,0-1.6.7-3,2.1-4s3.2-1.5,5.6-1.5c2.1,0,3.8.3,5,1s2.2,1.5,2.8,2.5l-3.5,2.4c-.5-.6-1.1-1.1-1.8-1.5-.7-.4-1.6-.6-2.5-.6-1.1,0-1.8.2-2.2.5-.4.3-.6.7-.6,1.2,0,.6.3,1,.8,1.3s1.5.5,2.8.8c1.1.2,2.1.5,3,.8s1.6.7,2.2,1.2,1.1,1,1.4,1.7.5,1.4.5,2.3c0,1-.2,1.9-.6,2.6s-1,1.3-1.7,1.8-1.6.8-2.5,1.1c-1,.2-2,.3-3.1.3-2.2,0-4-.4-5.4-1.2s-2.4-1.9-3.1-3.1l3.7-2.4Z"/>
    <path class="cls-3" d="M224.5,28.9c.1,1.6.6,2.7,1.4,3.4.8.7,1.8,1,2.8,1,.9,0,1.7-.2,2.4-.5s1.5-1,2.2-2.1l3.7,2.3c-1.1,1.6-2.3,2.7-3.7,3.4s-3,1-4.9,1c-1.2,0-2.4-.2-3.5-.6s-2.1-1-2.9-1.8-1.5-1.8-2-3-.7-2.6-.7-4.3c0-1.6.2-2.9.7-4.2.5-1.2,1.1-2.2,1.9-3s1.8-1.4,2.9-1.9c1.1-.4,2.2-.7,3.5-.7,2.6,0,4.7.9,6.2,2.7,1.6,1.8,2.4,4.5,2.4,8.2l-12.4.1h0ZM232.1,25.5c-.1-1.2-.5-2.2-1.2-2.8s-1.5-.9-2.3-.9c-.4,0-.9.1-1.3.2-.4.2-.8.4-1.2.7s-.7.7-.9,1.2-.4,1-.5,1.5l7.4.1h0Z"/>
  </g>
</svg>