<?xml version="1.0" encoding="UTF-8"?>
<svg id="Layer_1" data-name="Layer 1" xmlns="http://www.w3.org/2000/svg" xmlns:xlink="http://www.w3.org/1999/xlink" viewBox="0 0 242.44 47.02">
  <defs>
    <style>
      .cls-1 {
        fill: url(#linear-gradient);
      }

      .cls-1, .cls-2, .cls-3, .cls-4 {
        stroke-width: 0px;
      }

      .cls-2 {
        fill: url(#linear-gradient-2);
      }

      .cls-3 {
        fill: url(#linear-gradient-3);
      }

      .cls-4 {
        fill: #2f3e7c;
      }
    </style>
    <linearGradient id="linear-gradient" x1="5.27" y1="-611.3" x2="34.04" y2="-611.3" gradientTransform="translate(0 -594.39) scale(1 -1)" gradientUnits="userSpaceOnUse">
      <stop offset="0" stop-color="#09a6df"/>
      <stop offset=".13" stop-color="#7497ce"/>
      <stop offset=".26" stop-color="#9e87bf"/>
      <stop offset=".41" stop-color="#bb78b2"/>
      <stop offset=".55" stop-color="#d069a9"/>
      <stop offset=".69" stop-color="#de5ba1"/>
      <stop offset=".84" stop-color="#e6519d"/>
      <stop offset="1" stop-color="#e94d9c"/>
    </linearGradient>
    <linearGradient id="linear-gradient-2" x1="20.42" y1="842.95" x2="49.17" y2="842.95" gradientTransform="translate(0 -811.05)" gradientUnits="userSpaceOnUse">
      <stop offset="0" stop-color="#5a6fb5"/>
      <stop offset="1" stop-color="#b77eb7"/>
    </linearGradient>
    <linearGradient id="linear-gradient-3" x1="5.27" y1="-611.3" x2="34.05" y2="-611.3" gradientTransform="translate(0 -594.39) scale(1 -1)" gradientUnits="userSpaceOnUse">
      <stop offset="0" stop-color="#09a6df"/>
      <stop offset=".06" stop-color="#239fda"/>
      <stop offset=".24" stop-color="#418dcc"/>
      <stop offset=".42" stop-color="#4f7fc1"/>
      <stop offset=".6" stop-color="#5676ba"/>
      <stop offset=".8" stop-color="#5970b6"/>
      <stop offset="1" stop-color="#5a6eb4"/>
    </linearGradient>
  </defs>
  <path class="cls-1" d="M33.46,23.46L23.36,6.03c-1.67-2.83-5.81-2.83-7.48,0L5.86,23.46c-1.67,2.83.44,6.46,3.7,6.46h20.12c3.34,0,5.45-3.56,3.78-6.46ZM28.38,27.24H10.94c-1.67,0-2.69-1.74-1.82-3.2l8.72-15.11c.8-1.45,2.91-1.45,3.7,0l8.72,15.11c.8,1.45-.22,3.2-1.89,3.2Z"/>
  <path class="cls-2" d="M48.57,25.35l-10.1,17.43c-1.67,2.83-5.81,2.83-7.48,0l-10.1-17.43c-1.67-2.83.44-6.46,3.7-6.46h20.12c3.49,0,5.52,3.63,3.85,6.46ZM43.48,21.57h-17.43c-1.67,0-2.69,1.74-1.82,3.2l.15.29,1.53,2.69,7.05,12.13c.8,1.45,2.91,1.45,3.7,0l8.72-15.11c.8-1.45-.22-3.2-1.89-3.2Z"/>
  <path class="cls-3" d="M33.46,23.46L23.36,6.03c-1.67-2.83-5.81-2.83-7.48,0L5.86,23.46c-1.67,2.83.44,6.46,3.7,6.46h14.09l-1.53-2.69h-11.19c-1.67,0-2.69-1.74-1.82-3.2l8.72-15.11c.8-1.45,2.91-1.45,3.7,0l8.72,15.11c.8,1.45-.22,3.2-1.82,3.2h-2.69l1.53,2.69h2.54c3.2,0,5.3-3.56,3.63-6.46Z"/>
  <g>
    <path class="cls-4" d="M61.47,32.91V13.81h-7v-4.2h18.7v4.2h-6.9v19.1h-4.8Z"/>
    <path class="cls-4" d="M72.77,32.91v-16.8h4.2l.2,1.5c.6-.7,1.3-1.1,1.9-1.4s1.3-.4,2-.4c.4,0,.8,0,1.3.1.4.1.9.2,1.4.4l-.8,4c-.5-.2-.9-.3-1.3-.4s-.8-.2-1.2-.2c-.7,0-1.2.2-1.8.5-.5.3-.9.7-1.2,1v11.8l-4.7-.1h0Z"/>
    <path class="cls-4" d="M94.77,32.91l-.2-1.3c-.5.5-1.1.9-1.9,1.2-.8.3-1.6.4-2.5.4-.7,0-1.5-.1-2.2-.4-.7-.2-1.3-.6-1.9-1-.5-.5-1-1-1.3-1.7s-.5-1.4-.5-2.3.2-1.6.5-2.2c.4-.6.8-1.2,1.4-1.6s1.3-.8,2-1.1c.8-.3,1.6-.5,2.4-.6.6-.1,1.2-.2,1.9-.3.7-.1,1.3-.1,1.8-.2v-.6c0-.7-.2-1.2-.7-1.6s-1-.6-1.6-.6c-.4,0-.9.1-1.5.3-.6.2-1.2.6-1.8,1.2l-3.1-2.2c.4-.6,1-1,1.5-1.4.6-.4,1.2-.7,1.8-.9.6-.2,1.2-.4,1.8-.4.6-.1,1.1-.1,1.6-.1,1,0,1.9.1,2.7.4.8.2,1.5.6,2.1,1.2.6.5,1.1,1.2,1.4,2,.3.8.5,1.8.5,2.9v10.8l-4.2.1h0ZM94.37,25.11c-.5,0-1,.1-1.5.1-.5.1-1,.1-1.5.2-1,.2-1.7.5-2,1-.4.5-.6,1-.6,1.5,0,.6.2,1,.6,1.3s1,.5,1.9.5c.6,0,1.1-.1,1.7-.4.5-.2,1-.5,1.4-.9v-3.3h0Z"/>
    <path class="cls-4" d="M103.47,32.91v-16.8h4.2l.2,1.3c.7-.6,1.5-1,2.4-1.3s1.8-.5,2.7-.5,1.8.1,2.6.4,1.5.7,2,1.3c.6.6,1,1.3,1.3,2.3.3.9.5,2.1.5,3.4v10h-4.6v-9.6c0-1.3-.3-2.3-.8-3-.6-.7-1.3-1.1-2.3-1.1-.7,0-1.4.2-2,.5s-1.1.7-1.6,1.2v12h-4.6v-.1h0Z"/>
    <path class="cls-4" d="M125.87,27.31c.4.7,1,1.4,1.7,1.9s1.6.8,2.7.8c.9,0,1.7-.1,2.2-.4s.8-.7.8-1.2-.3-.9-.8-1.3c-.6-.4-1.6-.7-3.1-1-.9-.2-1.7-.4-2.4-.6-.7-.3-1.4-.6-1.9-1s-.9-.9-1.2-1.5-.4-1.3-.4-2.1c0-1.5.6-2.7,1.9-3.6,1.2-.9,2.9-1.4,5.1-1.4,1.9,0,3.4.3,4.5.9s2,1.4,2.6,2.3l-3.2,2.2c-.4-.6-1-1-1.6-1.4s-1.4-.6-2.3-.6c-1,0-1.7.1-2,.4-.4.3-.6.7-.6,1.1,0,.5.2.9.7,1.2s1.3.5,2.6.7c1,.2,1.9.5,2.7.7s1.5.6,2,1.1c.6.4,1,1,1.3,1.6s.4,1.3.4,2.1c0,.9-.2,1.7-.6,2.4s-.9,1.2-1.5,1.6-1.4.8-2.3,1-1.8.3-2.8.3c-2,0-3.6-.4-4.9-1.1-1.2-.8-2.2-1.7-2.9-2.9l3.3-2.2Z"/>
    <path class="cls-4" d="M144.27,25.61c.1,1.4.6,2.4,1.3,3.1.8.6,1.6.9,2.5.9.8,0,1.6-.1,2.2-.4.7-.3,1.3-.9,2-1.9l3.4,2.1c-1,1.5-2.1,2.5-3.3,3.1-1.3.6-2.7.9-4.4.9-1.1,0-2.2-.2-3.2-.5-1-.4-1.9-.9-2.6-1.6-.8-.7-1.4-1.7-1.8-2.7s-.7-2.4-.7-3.9c0-1.4.2-2.7.6-3.8s1-2,1.8-2.8c.7-.7,1.6-1.3,2.6-1.7,1-.4,2-.6,3.2-.6,2.4,0,4.3.8,5.7,2.5,1.4,1.6,2.2,4.1,2.2,7.5h-11.5v-.2ZM151.17,22.51c-.1-1.1-.5-2-1.1-2.5-.7-.6-1.4-.8-2.1-.8-.4,0-.8.1-1.2.2-.4.2-.7.4-1.1.7-.3.3-.6.6-.8,1.1s-.4.9-.4,1.4l6.7-.1h0Z"/>
    <path class="cls-4" d="M164.07,32.91l-7.5-16.9h4.9l4.7,11.2,4.5-11.2h4.7l-7.2,16.9h-4.1Z"/>
    <path class="cls-4" d="M180.77,25.61c.1,1.4.6,2.4,1.3,3.1.8.6,1.6.9,2.5.9.8,0,1.6-.1,2.2-.4.7-.3,1.3-.9,2-1.9l3.4,2.1c-1,1.5-2.1,2.5-3.3,3.1-1.3.6-2.7.9-4.4.9-1.1,0-2.2-.2-3.2-.5-1-.4-1.9-.9-2.6-1.6-.8-.7-1.4-1.7-1.8-2.7s-.7-2.4-.7-3.9c0-1.4.2-2.7.6-3.8s1-2,1.8-2.8c.7-.7,1.6-1.3,2.6-1.7,1-.4,2-.6,3.2-.6,2.4,0,4.3.8,5.7,2.5,1.4,1.6,2.2,4.1,2.2,7.5h-11.5v-.2ZM187.67,22.51c-.1-1.1-.5-2-1.1-2.5-.7-.6-1.4-.8-2.1-.8-.4,0-.8.1-1.2.2-.4.2-.7.4-1.1.7-.3.3-.6.6-.8,1.1s-.4.9-.4,1.4l6.7-.1h0Z"/>
    <path class="cls-4" d="M195.57,32.91v-16.8h4.2l.2,1.5c.6-.7,1.3-1.1,1.9-1.4.6-.3,1.3-.4,2-.4.4,0,.8,0,1.3.1.4.1.9.2,1.4.4l-.8,4c-.5-.2-.9-.3-1.3-.4-.4-.1-.8-.2-1.2-.2-.7,0-1.2.2-1.8.5-.5.3-.9.7-1.2,1v11.8l-4.7-.1h0Z"/>
    <path class="cls-4" d="M210.37,27.31c.4.7,1,1.4,1.7,1.9s1.6.8,2.7.8c.9,0,1.7-.1,2.2-.4s.8-.7.8-1.2-.3-.9-.8-1.3c-.6-.4-1.6-.7-3.1-1-.9-.2-1.7-.4-2.4-.6-.7-.3-1.4-.6-1.9-1s-.9-.9-1.2-1.5-.4-1.3-.4-2.1c0-1.5.6-2.7,1.9-3.6,1.2-.9,2.9-1.4,5.1-1.4,1.9,0,3.4.3,4.5.9s2,1.4,2.6,2.3l-3.2,2.2c-.4-.6-1-1-1.6-1.4s-1.4-.6-2.3-.6c-1,0-1.7.1-2,.4-.4.3-.6.7-.6,1.1,0,.5.2.9.7,1.2s1.3.5,2.6.7c1,.2,1.9.5,2.7.7s1.5.6,2,1.1c.6.4,1,1,1.3,1.6s.4,1.3.4,2.1c0,.9-.2,1.7-.6,2.4s-.9,1.2-1.5,1.6-1.4.8-2.3,1-1.8.3-2.8.3c-2,0-3.6-.4-4.9-1.1-1.2-.8-2.2-1.7-2.9-2.9l3.3-2.2Z"/>
    <path class="cls-4" d="M228.77,25.61c.1,1.4.6,2.4,1.3,3.1.8.6,1.6.9,2.5.9.8,0,1.6-.1,2.2-.4.7-.3,1.3-.9,2-1.9l3.4,2.1c-1,1.5-2.1,2.5-3.3,3.1-1.3.6-2.7.9-4.4.9-1.1,0-2.2-.2-3.2-.5-1-.4-1.9-.9-2.6-1.6-.8-.7-1.4-1.7-1.8-2.7s-.7-2.4-.7-3.9c0-1.4.2-2.7.6-3.8s1-2,1.8-2.8c.7-.7,1.6-1.3,2.6-1.7,1-.4,2-.6,3.2-.6,2.4,0,4.3.8,5.7,2.5,1.4,1.6,2.2,4.1,2.2,7.5h-11.5v-.2h0ZM235.57,22.51c-.1-1.1-.5-2-1.1-2.5-.7-.6-1.4-.8-2.1-.8-.4,0-.8.1-1.2.2-.4.2-.7.4-1.1.7-.3.3-.6.6-.8,1.1s-.4.9-.4,1.4l6.7-.1h0Z"/>
  </g>
</svg>