<svg width="122" height="113" viewBox="0 0 122 113" fill="none" xmlns="http://www.w3.org/2000/svg">
<path d="M1.60871 53.4095L29.2724 5.86348C33.816 -1.9545 45.1951 -1.9545 49.7387 5.86348L77.4023 53.4095C81.9459 61.2275 76.2564 71 67.1692 71L11.8419 71C2.73456 71 -2.95499 61.2275 1.60871 53.4095ZM15.5411 63.7404L63.4901 63.7404C67.9935 63.7404 70.8282 58.8941 68.5765 55.025L68.1141 54.2472L63.8922 46.9876L44.5919 13.841C42.3403 9.97191 36.6909 9.97191 34.4392 13.841L10.4748 55.025C8.22306 58.8941 11.0377 63.7404 15.5612 63.7404H15.5411Z" fill="url(#paint0_linear_50_74)"/>
<path d="M120.419 60.3464L93.1044 107.215C88.6135 114.928 77.3865 114.928 72.8956 107.215L45.5806 60.3464C41.0897 52.6328 46.7033 43 55.6849 43H110.315C119.297 43 124.91 52.6328 120.419 60.3464ZM106.663 50.1635H59.3368C54.883 50.1635 52.0947 54.9432 54.3278 58.7695L54.7719 59.5396L58.942 66.7031L77.991 99.3912C80.2241 103.217 85.7883 103.217 88.009 99.3912L99.8406 79.0864L111.672 58.7817C113.905 54.9555 111.117 50.1757 106.663 50.1757V50.1635Z" fill="url(#paint1_linear_50_74)"/>
<path fill-rule="evenodd" clip-rule="evenodd" d="M61.61 43H71.3424L75.5203 50.244H65.7889L64.0324 47.1971L61.61 43Z" fill="#545DFB"/>
<defs>
<linearGradient id="paint0_linear_50_74" x1="-9" y1="77" x2="78.9914" y2="21.9862" gradientUnits="userSpaceOnUse">
<stop stop-color="#5FB5F2"/>
<stop offset="1" stop-color="#5149FC"/>
</linearGradient>
<linearGradient id="paint1_linear_50_74" x1="17.5" y1="105.5" x2="142" y2="43" gradientUnits="userSpaceOnUse">
<stop stop-color="#6441EF"/>
<stop stop-color="#5A6FB5"/>
<stop offset="0.0001" stop-color="#5A6FB5"/>
<stop offset="1" stop-color="#C85AD1"/>
</linearGradient>
</defs>
</svg>
