<svg width="127" height="121" viewBox="0 0 127 121" fill="none" xmlns="http://www.w3.org/2000/svg">
<path d="M1.81235 60.1702L32.9778 6.60569C38.0965 -2.20191 50.916 -2.20191 56.0347 6.60569L87.2001 60.1702C92.3188 68.9778 85.9091 79.9873 75.6716 79.9873L13.3408 79.9873C3.08071 79.9873 -3.32904 68.9778 1.81235 60.1702ZM17.5083 71.8089L71.5268 71.8089C76.6003 71.8089 79.7938 66.349 77.2571 61.9902L76.7361 61.1139L71.9798 52.9354L50.2365 15.593C47.6998 11.2342 41.3353 11.2342 38.7986 15.593L11.8007 61.9902C9.26395 66.349 12.4349 71.8089 17.5309 71.8089H17.5083Z" fill="url(#paint0_linear_109_43)"/>
<path d="M125.197 60.8245L94.0293 114.388C88.9052 123.204 76.0948 123.204 70.9707 114.388L39.8035 60.8245C34.6793 52.0089 41.0845 41 51.3328 41H113.667C123.916 41 130.321 52.0089 125.197 60.8245ZM109.5 49.1869H55.4997C50.4178 49.1869 47.2363 54.6494 49.7843 59.0223L50.2911 59.9024L55.0492 68.0893L76.7846 105.447C79.3326 109.82 85.6815 109.82 88.2154 105.447L101.716 82.2417L115.216 59.0362C117.764 54.6634 114.582 49.2008 109.5 49.2008V49.1869Z" fill="url(#paint1_linear_109_43)"/>
<path fill-rule="evenodd" clip-rule="evenodd" d="M65.0012 41H76.0853L80.8433 49.25H69.7605L67.7601 45.78L65.0012 41Z" fill="#545DFB"/>
<defs>
<linearGradient id="paint0_linear_109_43" x1="-10.1392" y1="86.7468" x2="88.9903" y2="24.7692" gradientUnits="userSpaceOnUse">
<stop stop-color="#5FB5F2"/>
<stop offset="1" stop-color="#5149FC"/>
</linearGradient>
<linearGradient id="paint1_linear_109_43" x1="7.76282" y1="112.429" x2="149.912" y2="41.1828" gradientUnits="userSpaceOnUse">
<stop stop-color="#6441EF"/>
<stop stop-color="#5A6FB5"/>
<stop offset="0.0001" stop-color="#5A6FB5"/>
<stop offset="1" stop-color="#C85AD1"/>
</linearGradient>
</defs>
</svg>
